<?xml version="1.0" encoding="utf-8"?>
<!-- Generator: Adobe Illustrator 27.5.0, SVG Export Plug-In . SVG Version: 6.00 Build 0)  -->
<svg version="1.1" xmlns="http://www.w3.org/2000/svg" xmlns:xlink="http://www.w3.org/1999/xlink" x="0px" y="0px"
	 viewBox="0 0 3710 3710" style="enable-background:new 0 0 3710 3710;" xml:space="preserve">
<g id="Background">
	<g>
		<g>
			<rect style="fill:#FFFFFF;" width="3710" height="3710"/>
		</g>
	</g>
</g>
<g id="Illustration">
	<g>
		<path style="fill:#F4F7FA;" d="M1144.403,615.249c-94.404,132.162,12.374,349.162-126.681,447.842
			c-135.36,96.058-298.704-65.447-426.188,17.124c-189.116,122.489-160.811,692.378,110.049,1049.126
			c81.456,107.286,150.018,149.417,179.31,270.092c62.9,259.119-169.333,410.423-126.792,538.698
			c95.787,288.832,1612.946,546.312,2231.818-312.183c289.038-400.952,337.786-983.81,87.997-1429.51
			C2622.552,391.064,1356.23,318.703,1144.403,615.249z"/>
		<g>
			<polygon style="fill:#97A6B7;" points="800.113,2663.886 749.359,2629.261 565.533,731.853 610.686,708.66 759.728,1595.88 			
				"/>
			<linearGradient id="SVGID_1_" gradientUnits="userSpaceOnUse" x1="714.3522" y1="184.3413" x2="1235.8904" y2="1566.631">
				<stop  offset="0.0081" style="stop-color:#97A6B7"/>
				<stop  offset="0.2838" style="stop-color:#EBEFF2"/>
				<stop  offset="1" style="stop-color:#97A6B7"/>
			</linearGradient>
			<polygon style="fill:url(#SVGID_1_);" points="1961.83,2574.951 800.113,2663.886 610.686,708.66 1787.608,776.664 			"/>
			
				<linearGradient id="SVGID_00000147912548245635379270000006013615064717584276_" gradientUnits="userSpaceOnUse" x1="177.9579" y1="747.5407" x2="1305.8344" y2="2575.0408">
				<stop  offset="0.0081" style="stop-color:#97A6B7"/>
				<stop  offset="0.2838" style="stop-color:#EBEFF2"/>
				<stop  offset="1" style="stop-color:#97A6B7"/>
			</linearGradient>
			<polygon style="fill:url(#SVGID_00000147912548245635379270000006013615064717584276_);" points="1314.504,1680.822 
				739.125,849.489 610.686,708.66 800.113,2663.886 901.065,2521.005 			"/>
			
				<linearGradient id="SVGID_00000152252343379512837340000004575638992175202454_" gradientUnits="userSpaceOnUse" x1="1582.4694" y1="1003.7677" x2="1462.4659" y2="2691.324" gradientTransform="matrix(1 0 0.1132 0.9962 -105.4464 3.2567)">
				<stop  offset="0.0081" style="stop-color:#97A6B7"/>
				<stop  offset="0.2838" style="stop-color:#EBEFF2"/>
				<stop  offset="1" style="stop-color:#97A6B7"/>
			</linearGradient>
			<polygon style="fill:url(#SVGID_00000152252343379512837340000004575638992175202454_);" points="1700.593,896.219 
				1314.504,1680.822 1851.821,2457.161 1961.83,2574.951 1787.608,776.664 			"/>
			<polygon style="opacity:0.3;fill:#D8DEE8;" points="850.788,2592.163 675.159,779.353 1744.259,836.222 1907.027,2516.272 			"/>
			
				<linearGradient id="SVGID_00000047776495106033921480000008199891452016797106_" gradientUnits="userSpaceOnUse" x1="720.4155" y1="1688.4061" x2="1704.5703" y2="1688.4061" gradientTransform="matrix(1 0 0.1132 0.9962 -105.4464 3.2567)">
				<stop  offset="0.494" style="stop-color:#EBEFF2"/>
				<stop  offset="1" style="stop-color:#FFFFFF"/>
			</linearGradient>
			<polygon style="fill:url(#SVGID_00000047776495106033921480000008199891452016797106_);" points="901.065,2521.005 
				739.125,849.489 1700.593,896.219 1851.821,2457.161 			"/>
		</g>
		<g>
			
				<linearGradient id="SVGID_00000158747927733507803590000006158644588925130647_" gradientUnits="userSpaceOnUse" x1="1356.1718" y1="1544.3198" x2="970.7459" y2="1681.1735">
				<stop  offset="0" style="stop-color:#311944"/>
				<stop  offset="1" style="stop-color:#893976"/>
			</linearGradient>
			<polygon style="fill:url(#SVGID_00000158747927733507803590000006158644588925130647_);" points="1108.982,2713.314 
				1054.715,2676.293 858.168,647.578 906.446,622.78 1065.803,1571.399 			"/>
			
				<linearGradient id="SVGID_00000165946939633793841770000000376849975782010815_" gradientUnits="userSpaceOnUse" x1="1538.4283" y1="3057.5505" x2="1560.0691" y2="304.661" gradientTransform="matrix(1 0 0.1132 0.9962 -105.4464 3.2567)">
				<stop  offset="0" style="stop-color:#FF9085"/>
				<stop  offset="1" style="stop-color:#FB6FBB"/>
			</linearGradient>
			<polygon style="fill:url(#SVGID_00000165946939633793841770000000376849975782010815_);" points="2351.094,2618.225 
				1108.981,2713.315 906.446,622.78 2164.814,695.49 			"/>
			
				<linearGradient id="SVGID_00000128452208182160056320000009183432832009711540_" gradientUnits="userSpaceOnUse" x1="1283.499" y1="854.8041" x2="1148.3391" y2="2428.7612" gradientTransform="matrix(1 0 0.1132 0.9962 -105.4464 3.2567)">
				<stop  offset="0" style="stop-color:#FF9085"/>
				<stop  offset="1" style="stop-color:#FB6FBB"/>
			</linearGradient>
			<polygon style="fill:url(#SVGID_00000128452208182160056320000009183432832009711540_);" points="1658.97,1662.219 
				1043.773,773.355 906.446,622.78 1108.982,2713.314 1216.921,2560.545 			"/>
			
				<linearGradient id="SVGID_00000040540125108406508880000010415672858980031160_" gradientUnits="userSpaceOnUse" x1="1953.4885" y1="938.022" x2="1825.1804" y2="2742.3625" gradientTransform="matrix(1 0 0.1132 0.9962 -105.4464 3.2567)">
				<stop  offset="0" style="stop-color:#FF9085"/>
				<stop  offset="1" style="stop-color:#FB6FBB"/>
			</linearGradient>
			<polygon style="fill:url(#SVGID_00000040540125108406508880000010415672858980031160_);" points="2071.778,823.318 
				1658.97,1662.219 2233.471,2492.283 2351.094,2618.225 2164.814,695.49 			"/>
			
				<linearGradient id="SVGID_00000170273588418951254030000010246523018379127983_" gradientUnits="userSpaceOnUse" x1="969.3758" y1="1670.588" x2="2138.0171" y2="1670.588" gradientTransform="matrix(1 0 0.1132 0.9962 -105.4464 3.2567)">
				<stop  offset="0" style="stop-color:#FF9085"/>
				<stop  offset="1" style="stop-color:#FB6FBB"/>
			</linearGradient>
			<polygon style="opacity:0.3;fill:url(#SVGID_00000170273588418951254030000010246523018379127983_);" points="1163.164,2636.628 
				975.38,698.365 2118.467,759.17 2292.498,2555.485 			"/>
			
				<linearGradient id="SVGID_00000106114534244964055030000015638571465783585950_" gradientUnits="userSpaceOnUse" x1="1031.7777" y1="1670.0396" x2="2084.0393" y2="1670.0396" gradientTransform="matrix(1 0 0.1132 0.9962 -105.4464 3.2567)">
				<stop  offset="0.494" style="stop-color:#EBEFF2"/>
				<stop  offset="1" style="stop-color:#FFFFFF"/>
			</linearGradient>
			<polygon style="fill:url(#SVGID_00000106114534244964055030000015638571465783585950_);" points="1216.921,2560.545 
				1043.773,773.355 2071.778,823.318 2233.471,2492.283 			"/>
			
				<linearGradient id="SVGID_00000057136441497677641370000013703614298851289492_" gradientUnits="userSpaceOnUse" x1="1675.8171" y1="1003.8588" x2="1276.458" y2="3068.3464">
				<stop  offset="0.0036" style="stop-color:#E38DDD"/>
				<stop  offset="1" style="stop-color:#9571F6"/>
			</linearGradient>
			<path style="fill:url(#SVGID_00000057136441497677641370000013703614298851289492_);" d="M1265.094,1746.873
				c2.925-206.263,93.459-236.997,81.226-406.128c-17.454-241.321-212.308-324.529-169.22-419.666
				c51.996-114.801,402.065-140.112,629.499,27.075c196.5,144.448,229.52,379.711,243.677,480.585
				c14.195,101.146,53.719,382.761-135.376,582.117c-120.774,127.328-350.646,237.796-500.892,148.914
				C1260.525,2068.973,1264.142,1813.927,1265.094,1746.873z"/>
			
				<linearGradient id="SVGID_00000052814414993853934750000011263777721642595721_" gradientUnits="userSpaceOnUse" x1="1904.0552" y1="1177.3369" x2="1447.3118" y2="3538.4727">
				<stop  offset="0" style="stop-color:#AA80F9"/>
				<stop  offset="0.9964" style="stop-color:#6165D7"/>
			</linearGradient>
			<path style="fill:url(#SVGID_00000052814414993853934750000011263777721642595721_);" d="M2023.2,1042.917
				c-91.653-42.332-308.481,209.012-433.204,412.897c-145.402,237.691-395.865,787.273-182.758,981.477
				c170.703,155.561,603.445,50.842,670.112-135.376c56.757-158.535-195.745-253.415-175.989-521.198
				c15.078-204.371,172.196-285.252,169.22-561.811C2069.861,1151.911,2068.914,1064.031,2023.2,1042.917z"/>
		</g>
		<g>
			
				<rect x="2350.334" y="1704.75" transform="matrix(0.9504 0.3112 -0.3112 0.9504 723.9152 -653.4346)" style="fill:#97A6B7;" width="118.984" height="474.576"/>
			
				<linearGradient id="SVGID_00000153691905217979382310000011747299869691189414_" gradientUnits="userSpaceOnUse" x1="3112.1941" y1="1394.6858" x2="2687.3035" y2="1442.8398" gradientTransform="matrix(0.9504 0.3112 -0.3112 0.9504 217.3032 -721.5381)">
				<stop  offset="0" style="stop-color:#FF9085"/>
				<stop  offset="1" style="stop-color:#FB6FBB"/>
			</linearGradient>
			<path style="fill:url(#SVGID_00000153691905217979382310000011747299869691189414_);" d="M2634.828,1336.771l-48.462-15.867
				l-159.245,377.115c28.733,39.706,66.425,52.047,113.077,37.023L2634.828,1336.771z"/>
			
				<linearGradient id="SVGID_00000133527730299613321850000011505974379544470445_" gradientUnits="userSpaceOnUse" x1="2753.5625" y1="912.444" x2="2489.5786" y2="1645.7311">
				<stop  offset="0" style="stop-color:#FFC444"/>
				<stop  offset="0.9248" style="stop-color:#F47555"/>
				<stop  offset="0.9964" style="stop-color:#F36F56"/>
			</linearGradient>
			<path style="fill:url(#SVGID_00000133527730299613321850000011505974379544470445_);" d="M2529.814,1297.506
				c-56.068-59.162-48.516-145.231-46.582-167.279c17.242-196.518,227.111-238.032,285.019-479.019
				c15.245-63.44,10.837-102.749,25.42-104.952c34.753-5.252,130.127,207.354,109.796,429.432
				c-4.195,45.815-35.054,329.503-193.315,371.921C2651.361,1363.365,2575.485,1345.698,2529.814,1297.506z"/>
			
				<linearGradient id="SVGID_00000087399010121618527120000001601849093884627638_" gradientUnits="userSpaceOnUse" x1="2685.7334" y1="921.8831" x2="2735.3716" y2="1756.6992">
				<stop  offset="0" style="stop-color:#FFC444"/>
				<stop  offset="0.9964" style="stop-color:#F36F56"/>
			</linearGradient>
			<path style="opacity:0.3;fill:url(#SVGID_00000087399010121618527120000001601849093884627638_);" d="M2559.382,1298.244
				c-5.502-10.219-35.263-65.497-31.167-132.422c10.767-175.902,247.163-270.385,276.807-502.574
				c6.936-54.324,1.653-106.112,6.821-106.408c8.141-0.467,52.932,126.243,27.509,259.03
				c-39.966,208.743-237.643,349.978-193.087,449.744c5.259,11.775,23.366,44.184,10.186,64.412
				c-9.421,14.457-33.072,18.212-50.561,13.815C2590.977,1340.093,2576.068,1329.238,2559.382,1298.244z"/>
		</g>
		<g>
			
				<linearGradient id="SVGID_00000008870884907060577370000002316054489825561747_" gradientUnits="userSpaceOnUse" x1="3318.7393" y1="659.9137" x2="3063.7944" y2="1548.8365" gradientTransform="matrix(0.8347 0.5508 -0.5508 0.8347 663.5756 -1156.0061)">
				<stop  offset="0.0036" style="stop-color:#E38DDD"/>
				<stop  offset="1" style="stop-color:#9571F6"/>
			</linearGradient>
			<path style="fill:url(#SVGID_00000008870884907060577370000002316054489825561747_);" d="M2573.567,1581.116
				c-6.315-32.678,8.833-69.434,39.384-141.613c51.932-122.686,77.897-184.029,131.048-210.88
				c45.445-22.958,94.963-14.984,193.997,0.965c114.008,18.359,171.011,27.538,187.412,64.2
				c14.565,32.557-9.786,64.659-189.901,292.947c-68.609,86.958-103.726,130.599-143.489,138.535
				C2703.338,1742.97,2590.63,1669.403,2573.567,1581.116z"/>
			
				<linearGradient id="SVGID_00000026873803830118291100000017324904314647691165_" gradientUnits="userSpaceOnUse" x1="3112.7869" y1="1012.5811" x2="3235.2322" y2="1012.5811" gradientTransform="matrix(0.8347 0.5508 -0.5508 0.8347 663.5756 -1156.0061)">
				<stop  offset="0.0036" style="stop-color:#E38DDD"/>
				<stop  offset="1" style="stop-color:#9571F6"/>
			</linearGradient>
			<path style="opacity:0.3;fill:url(#SVGID_00000026873803830118291100000017324904314647691165_);" d="M2828.681,1214.907
				c-61.844,100.058-148.308,246.8-234.745,416.098c15.744,24.978,38.578,46.995,64.836,63.717
				c98.869-196.041,199.228-363.939,264.126-467.56C2884.738,1221.051,2854.339,1216.458,2828.681,1214.907z"/>
			
				<linearGradient id="SVGID_00000125569756356013583350000003265209801206212540_" gradientUnits="userSpaceOnUse" x1="3276.3088" y1="978.3978" x2="3425.8118" y2="978.3978" gradientTransform="matrix(0.8347 0.5508 -0.5508 0.8347 663.5756 -1156.0061)">
				<stop  offset="0.0036" style="stop-color:#E38DDD"/>
				<stop  offset="1" style="stop-color:#9571F6"/>
			</linearGradient>
			<path style="opacity:0.3;fill:url(#SVGID_00000125569756356013583350000003265209801206212540_);" d="M3125.409,1293.788
				c-5.132-11.47-14.238-20.249-27.82-27.462c-68.344,96.17-206.138,273.812-402.109,447.352
				c31.716,12.803,65.588,17.77,96.54,11.592c39.763-7.936,74.879-51.577,143.489-138.535
				C3115.623,1358.448,3139.973,1326.345,3125.409,1293.788z"/>
			
				<linearGradient id="SVGID_00000173157904783417886420000013541874583316904092_" gradientUnits="userSpaceOnUse" x1="2259.1355" y1="1970.0087" x2="2688.9514" y2="1970.0087">
				<stop  offset="0" style="stop-color:#444B8C"/>
				<stop  offset="0.9964" style="stop-color:#26264F"/>
			</linearGradient>
			<polygon style="fill:url(#SVGID_00000173157904783417886420000013541874583316904092_);" points="2320.444,2270.94 
				2259.135,2230.483 2641.767,1669.077 2688.951,1700.214 			"/>
			
				<linearGradient id="SVGID_00000152976817152024361880000016489371657218296244_" gradientUnits="userSpaceOnUse" x1="2703.6782" y1="1557.3981" x2="2561.5334" y2="2139.5149">
				<stop  offset="0" style="stop-color:#444B8C"/>
				<stop  offset="0.9964" style="stop-color:#26264F"/>
			</linearGradient>
			<path style="fill:url(#SVGID_00000152976817152024361880000016489371657218296244_);" d="M2555.442,1575.368l-14.239,33.744
				c-4.232,10.028-0.754,21.648,8.291,27.703l200.118,133.962c8.855,5.927,20.64,4.902,28.338-2.466l27.007-25.85
				c10.502-10.052,8.988-27.246-3.11-35.307l-212.886-141.856C2577.103,1557.396,2560.982,1562.239,2555.442,1575.368z"/>
		</g>
		<g>
			
				<linearGradient id="SVGID_00000034804028175291094580000001700775786635937682_" gradientUnits="userSpaceOnUse" x1="2240.7341" y1="1693.6576" x2="2442.3359" y2="1693.6576">
				<stop  offset="0" style="stop-color:#444B8C"/>
				<stop  offset="0.9964" style="stop-color:#26264F"/>
			</linearGradient>
			<polygon style="fill:url(#SVGID_00000034804028175291094580000001700775786635937682_);" points="2313.58,2173.307 
				2240.734,2163.875 2386.272,1214.008 2442.336,1221.267 			"/>
			
				<linearGradient id="SVGID_00000166650798378271416270000008823464151116997047_" gradientUnits="userSpaceOnUse" x1="2533.8396" y1="691.0938" x2="2437.3826" y2="1330.7587" gradientTransform="matrix(0.9917 0.1284 -0.1284 0.9917 65.5531 -259.5893)">
				<stop  offset="0.0036" style="stop-color:#E38DDD"/>
				<stop  offset="1" style="stop-color:#9571F6"/>
			</linearGradient>
			<path style="fill:url(#SVGID_00000166650798378271416270000008823464151116997047_);" d="M2285.437,1154.145
				c-10.467-140.7-27.576-478.833,68.899-510.691c13.263-4.38,67.206-15.694,84.344,7.509c13.221,17.899-0.223,49.889,5.408,51.674
				c7.265,2.304,26.644-51.89,38.659-49.381c10.16,2.121,7.898,43.293,15.159,43.997c6.558,0.636,7.185-33.07,25.987-45.495
				c28.094-18.563,83.149,19.39,85.962,21.369c92.695,65.218-19.76,425.524-50.148,519.056
				C2468.284,1179.505,2376.86,1166.825,2285.437,1154.145z"/>
			<g style="opacity:0.3;">
				
					<linearGradient id="SVGID_00000095327563346671400130000003029761638146174143_" gradientUnits="userSpaceOnUse" x1="2490.6724" y1="684.5834" x2="2394.2148" y2="1324.2509" gradientTransform="matrix(0.9917 0.1284 -0.1284 0.9917 65.5531 -259.5893)">
					<stop  offset="0.0036" style="stop-color:#E38DDD"/>
					<stop  offset="1" style="stop-color:#9571F6"/>
				</linearGradient>
				<path style="fill:url(#SVGID_00000095327563346671400130000003029761638146174143_);" d="M2454.043,691.372
					c-4.123,7.03-7.65,11.996-9.955,11.265c-5.631-1.786,7.813-33.775-5.408-51.674c-9.097-12.319-28.568-14.908-46.819-13.972
					c-13.457,112.619-34.685,306.895-30.101,527.739c15.78,2.189,31.559,4.377,47.339,6.565
					C2412.42,968.331,2434.54,799.555,2454.043,691.372z"/>
				
					<linearGradient id="SVGID_00000065753790225181713820000015969186803350841731_" gradientUnits="userSpaceOnUse" x1="2604.998" y1="701.8242" x2="2508.541" y2="1341.4894" gradientTransform="matrix(0.9917 0.1284 -0.1284 0.9917 65.5531 -259.5893)">
					<stop  offset="0.0036" style="stop-color:#E38DDD"/>
					<stop  offset="1" style="stop-color:#9571F6"/>
				</linearGradient>
				<path style="fill:url(#SVGID_00000065753790225181713820000015969186803350841731_);" d="M2579.831,656.255
					c-15.765-7.079-34.735-12.609-49.274-7.693c7.964,118.941,2.17,305.59-67.728,530.186c11.113,1.542,22.227,3.082,33.34,4.624
					C2576.079,1002.577,2584.487,789.052,2579.831,656.255z"/>
			</g>
			
				<linearGradient id="SVGID_00000168105717173719902520000015730331150879462333_" gradientUnits="userSpaceOnUse" x1="2423.769" y1="1090.9858" x2="2400.0784" y2="1415.8893">
				<stop  offset="0" style="stop-color:#444B8C"/>
				<stop  offset="0.9964" style="stop-color:#26264F"/>
			</linearGradient>
			<path style="fill:url(#SVGID_00000168105717173719902520000015730331150879462333_);" d="M2267.57,1167.713l2.021,36.569
				c0.601,10.868,8.827,19.781,19.612,21.25l238.614,32.502c10.558,1.438,20.697-4.658,24.378-14.657l12.916-35.083
				c5.023-13.642-3.887-28.425-18.296-30.357l-253.552-33.988C2279.141,1142.056,2266.783,1153.485,2267.57,1167.713z"/>
		</g>
		<g>
			
				<linearGradient id="SVGID_00000183943858711124208190000010384990863939784080_" gradientUnits="userSpaceOnUse" x1="2199.2551" y1="2411.7458" x2="2639.2268" y2="3948.2651">
				<stop  offset="0" style="stop-color:#311944"/>
				<stop  offset="1" style="stop-color:#893976"/>
			</linearGradient>
			<path style="fill:url(#SVGID_00000183943858711124208190000010384990863939784080_);" d="M2910.16,2297.616
				c-65.745-327.625-304.985-590.418-583.78-700.537c-204.784-80.885-532.868-119.668-624.391,25.382
				c-45.932,72.797-34.206,194.946,5.075,279.199c50.971,109.327,141.575,140.344,129.338,180.072
				c-19.285,62.609-243.515-17.029-342.762,82.438c-129.348,129.634,37.99,478.917,47.054,497.401
				c21.184,43.2,237.404,466.119,689.272,504.572c72.432,6.164,322.867,27.475,512.674-142.609
				C3008.096,2785.66,2926.349,2378.288,2910.16,2297.616z M2141.059,2416.21c-38.233,30.542-114.136-0.916-169.531-70.263
				c-55.395-69.347-69.307-150.323-31.072-180.865c38.234-30.542,114.136,0.916,169.531,70.264
				C2165.381,2304.693,2179.294,2385.669,2141.059,2416.21z"/>
			
				<linearGradient id="SVGID_00000150790830507443896840000010066865875839148961_" gradientUnits="userSpaceOnUse" x1="2212.7927" y1="2395.9521" x2="2652.7644" y2="3932.4714">
				<stop  offset="0" style="stop-color:#FFC444"/>
				<stop  offset="0.9964" style="stop-color:#F36F56"/>
			</linearGradient>
			<path style="fill:url(#SVGID_00000150790830507443896840000010066865875839148961_);" d="M2923.698,2281.822
				c-65.745-327.624-304.985-590.418-583.78-700.537c-204.784-80.885-532.868-119.668-624.391,25.382
				c-45.932,72.797-34.206,194.946,5.075,279.199c50.971,109.327,141.575,140.345,129.338,180.072
				c-19.285,62.609-243.515-17.029-342.762,82.438c-129.348,129.635,37.99,478.917,47.054,497.401
				c21.184,43.2,237.404,466.119,689.272,504.572c72.432,6.164,322.867,27.475,512.674-142.609
				C3021.634,2769.866,2939.886,2362.494,2923.698,2281.822z M2154.597,2400.417c-38.233,30.542-114.136-0.917-169.531-70.263
				c-55.395-69.347-69.307-150.323-31.072-180.865c38.234-30.542,114.136,0.917,169.531,70.264
				C2178.919,2288.899,2192.832,2369.875,2154.597,2400.417z"/>
			
				<linearGradient id="SVGID_00000106845453973948147660000004625086415853441951_" gradientUnits="userSpaceOnUse" x1="2162.1963" y1="1608.7994" x2="2139.6331" y2="2281.167">
				<stop  offset="0.0036" style="stop-color:#E38DDD"/>
				<stop  offset="1" style="stop-color:#9571F6"/>
			</linearGradient>
			<path style="fill:url(#SVGID_00000106845453973948147660000004625086415853441951_);" d="M2183.959,1631.513
				c-19.693-18.356-102.577,13.784-141.001,75.875c-35.317,57.068-44.729,158.261,22.547,211.8
				c49.148,39.113,130.17,45.583,182.758-1.692c42.118-37.863,59.648-104.493,37.228-145.529
				c-24.078-44.072-85.23-42.136-98.148-91.379C2180.598,1654.875,2193.65,1640.547,2183.959,1631.513z"/>
			
				<linearGradient id="SVGID_00000105388437186800994870000005160771786961336462_" gradientUnits="userSpaceOnUse" x1="2532.4021" y1="1469.6133" x2="2457.9448" y2="2051.7305">
				<stop  offset="0" style="stop-color:#FFC444"/>
				<stop  offset="0.9964" style="stop-color:#F36F56"/>
			</linearGradient>
			<path style="fill:url(#SVGID_00000105388437186800994870000005160771786961336462_);" d="M2458.096,1839.654
				c-18.102-14.562-97.844,25.392-128.656,91.145c-39,83.229-7.319,224.261,88.042,250.68c62.81,17.4,136.273-19.623,170.912-77.841
				c32.083-53.922,35.86-134.435-1.692-167.528c-37.998-33.487-102.928-4.858-123.531-40.613
				C2450.04,1872.706,2469.251,1848.627,2458.096,1839.654z"/>
			
				<linearGradient id="SVGID_00000020383324302031938750000012075338038714816410_" gradientUnits="userSpaceOnUse" x1="2970.5168" y1="1855.71" x2="2374.8623" y2="2681.5051">
				<stop  offset="0" style="stop-color:#FF9085"/>
				<stop  offset="1" style="stop-color:#FB6FBB"/>
			</linearGradient>
			<path style="fill:url(#SVGID_00000020383324302031938750000012075338038714816410_);" d="M2667.929,2406.542
				c40.896,13.871,111.368-45.702,131.992-113.377c25.236-82.815-18.024-197.946-86.302-208.141
				c-61.564-9.192-134.198,68.316-138.761,138.76c-2.295,35.439,18.213,71.008,59.227,142.145
				C2652.132,2397.229,2659.029,2403.522,2667.929,2406.542z"/>
			
				<linearGradient id="SVGID_00000057149987271254913100000013693538437071508915_" gradientUnits="userSpaceOnUse" x1="2607.8794" y1="2626.2998" x2="2871.582" y2="2626.2998">
				<stop  offset="0" style="stop-color:#AA80F9"/>
				<stop  offset="0.9964" style="stop-color:#6165D7"/>
			</linearGradient>
			<path style="fill:url(#SVGID_00000057149987271254913100000013693538437071508915_);" d="M2810.074,2472.538
				c-5.346-11.926-85.979-7.388-140.453,40.613c-40.649,35.819-80.236,107.738-52.458,179.373
				c18.859,48.636,67.729,94.461,120.146,93.071c97.178-2.576,160.662-166.214,123.531-223.371
				c-17.828-27.442-65.034-39.854-62.612-65.996C2799.457,2482.978,2812.373,2477.668,2810.074,2472.538z"/>
			
				<linearGradient id="SVGID_00000085212302541169814360000015036194555999632812_" gradientUnits="userSpaceOnUse" x1="2438.3511" y1="2855.1543" x2="2485.7322" y2="2259.5005">
				<stop  offset="0.0036" style="stop-color:#E38DDD"/>
				<stop  offset="1" style="stop-color:#9571F6"/>
			</linearGradient>
			<path style="fill:url(#SVGID_00000085212302541169814360000015036194555999632812_);" d="M2246.571,2753.443
				c-2.546-22.3,78.851-64.591,164.144-62.612c22.846,0.531,140.886,3.272,196.295,99.84
				c35.196,61.339,42.733,156.372-13.538,214.91c-48.897,50.867-119.348,46.478-131.992,45.689
				c-73.195-4.559-149.912-54.59-162.451-116.762c-11.939-59.201,40.031-101.056,15.23-140.453
				C2294.327,2762.395,2248.447,2769.861,2246.571,2753.443z"/>
			
				<linearGradient id="SVGID_00000026875112088172056510000014187102670975306382_" gradientUnits="userSpaceOnUse" x1="1974.5797" y1="2775.8018" x2="1988.1167" y2="3648.9761">
				<stop  offset="0" style="stop-color:#AA80F9"/>
				<stop  offset="0.9964" style="stop-color:#6165D7"/>
			</linearGradient>
			<path style="fill:url(#SVGID_00000026875112088172056510000014187102670975306382_);" d="M2014.739,2712.83
				c30.871-3.07,37.481-49.214,59.227-49.074c25.147,0.162,48.92,62.078,55.843,115.07c1.99,15.225,18.93,144.896-43.997,182.758
				c-70.39,42.351-223.68-40.423-260.599-159.067c-33.209-106.721,33.059-225.359,62.611-223.371
				c17.092,1.15,18.399,42.414,71.073,98.148C1992.927,2713.302,2008.775,2713.424,2014.739,2712.83z"/>
		</g>
		<g>
			
				<linearGradient id="SVGID_00000095322626178542474620000002457337459093294211_" gradientUnits="userSpaceOnUse" x1="2299.3496" y1="2933.2571" x2="2318.8086" y2="3283.5188" gradientTransform="matrix(-1 0 0 1 3412.8872 0)">
				<stop  offset="0" style="stop-color:#444B8C"/>
				<stop  offset="0.9964" style="stop-color:#26264F"/>
			</linearGradient>
			<path style="fill:url(#SVGID_00000095322626178542474620000002457337459093294211_);" d="M1064.794,3057.804
				c0,0-2.433,19.363-0.8,25.849c1.636,6.488,57.929,11.174,77.039,8.92c19.108-2.255-11.383-21.774-23.557-25.436
				C1105.301,3063.473,1064.794,3057.804,1064.794,3057.804z"/>
			
				<linearGradient id="SVGID_00000046316020666762383220000009104666050937925797_" gradientUnits="userSpaceOnUse" x1="2336.1003" y1="3105.8711" x2="2325.7634" y2="2632.9678" gradientTransform="matrix(-1 0 0 1 3412.8872 0)">
				<stop  offset="0" style="stop-color:#FFC444"/>
				<stop  offset="0.9964" style="stop-color:#F36F56"/>
			</linearGradient>
			<path style="fill:url(#SVGID_00000046316020666762383220000009104666050937925797_);" d="M1093.132,3025.505l-5.934,38.846
				c0,0-15.13,6.8-22.404,0.08l-0.8-40.661L1093.132,3025.505z"/>
			
				<linearGradient id="SVGID_00000028289128542652346420000011865383660167975855_" gradientUnits="userSpaceOnUse" x1="2651.5444" y1="2913.697" x2="2671.0024" y2="3263.9436" gradientTransform="matrix(-1 0 0 1 3412.8872 0)">
				<stop  offset="0" style="stop-color:#444B8C"/>
				<stop  offset="0.9964" style="stop-color:#26264F"/>
			</linearGradient>
			<path style="fill:url(#SVGID_00000028289128542652346420000011865383660167975855_);" d="M775.78,3023.77
				c0,0,11.946,8.863,8.761,19.478c-3.183,10.615-31.056,53.15-50.92,65.222c-19.862,12.073-13.637-13.079-7.857-28.743
				c5.781-15.666,20.552-50.173,26.317-55.957C757.847,3017.987,775.78,3023.77,775.78,3023.77z"/>
			
				<linearGradient id="SVGID_00000107565122262575412750000004399034055668121275_" gradientUnits="userSpaceOnUse" x1="2646.1799" y1="3099.0935" x2="2635.843" y2="2626.1892" gradientTransform="matrix(-1 0 0 1 3412.8872 0)">
				<stop  offset="0" style="stop-color:#FFC444"/>
				<stop  offset="0.9964" style="stop-color:#F36F56"/>
			</linearGradient>
			<path style="fill:url(#SVGID_00000107565122262575412750000004399034055668121275_);" d="M797.267,2981.093
				c-5.774,16.094-11.329,29.327-15.672,39.086c-9.61,21.594-14.864,29.697-20.812,36.72c-5.19,6.118-17.471,19.174-20.772,17
				c-3.354-2.203,5.634-18.077,22.951-64.563c2.516-6.745,10.46-28.243,10.46-28.243l0,0H797.267z"/>
			
				<linearGradient id="SVGID_00000140713369668246566130000009012359280550217881_" gradientUnits="userSpaceOnUse" x1="2185.9568" y1="2798.5051" x2="2382.356" y2="2534.9165" gradientTransform="matrix(-1 0 0 1 3412.8872 0)">
				<stop  offset="0" style="stop-color:#311944"/>
				<stop  offset="1" style="stop-color:#6B3976"/>
			</linearGradient>
			<path style="fill:url(#SVGID_00000140713369668246566130000009012359280550217881_);" d="M1211.024,2308.566
				c4.12,40.455,8.073,103.246,2.163,179.451c-7.703,99.285-27.557,162.113-52.453,267.976
				c-15.217,64.695-35.719,159.915-54.272,279.002c-4.305,2.464-16.97,8.942-33.277,6.524c-9.129-1.356-15.958-4.985-19.99-7.595
				c-48.68-148.75-34.302-240.93-10.809-298.36c10.012-24.479,22.154-43.792,28.643-81.424
				c8.588-49.787-2.031-77.619-17.171-192.943c-10.792-82.197-8.923-94.903-1.743-107.23
				C1080.818,2304.683,1168.611,2305.646,1211.024,2308.566z"/>
			
				<linearGradient id="SVGID_00000179616683821902995130000004017770370212761497_" gradientUnits="userSpaceOnUse" x1="2331.8508" y1="2831.2175" x2="2791.8396" y2="2402.2395" gradientTransform="matrix(-1 0 0 1 3412.8872 0)">
				<stop  offset="0" style="stop-color:#311944"/>
				<stop  offset="1" style="stop-color:#6B3976"/>
			</linearGradient>
			<path style="fill:url(#SVGID_00000179616683821902995130000004017770370212761497_);" d="M1043.468,2325.866
				c-29.821,154.005-59.091,234.891-81.24,280.642c-5.463,11.282-23.688,47.684-40.915,99.871
				c-15.252,46.193-21.608,80.174-24.864,95.131c-10.282,47.207-35.69,116.135-104.063,206.541
				c-0.852,0.502-12.511,7.095-23.656,1.218c-5.641-2.977-8.453-7.72-9.571-9.931c8.94-86.436,19.2-159.068,28.105-215.125
				c1.871-11.758,10.1-63.196,23.007-131.155c5.05-26.595,12.451-65.563,21.317-105.587c11.037-49.843,27.965-117.651,54.05-198.903
				C938.248,2340.997,990.858,2333.434,1043.468,2325.866z"/>
			
				<linearGradient id="SVGID_00000129894603492103066030000016465398051435686317_" gradientUnits="userSpaceOnUse" x1="1945.0659" y1="1890.3024" x2="2453.0076" y2="1844.5161" gradientTransform="matrix(-1 0 0 1 3412.8872 0)">
				<stop  offset="0" style="stop-color:#FFC444"/>
				<stop  offset="0.9964" style="stop-color:#F36F56"/>
			</linearGradient>
			<path style="fill:url(#SVGID_00000129894603492103066030000016465398051435686317_);" d="M1517.398,1949.36
				c-6.732-7.891-13.465-15.781-20.197-23.671c-3.205,2.45-49.744,36.768-105.368,16.698c-38.299-13.82-56.564-49.378-68.274-72.081
				c-35.172-68.192-2.666-110.143-43.957-158.891c-11.467-13.536-35.18-31.291-52.571-29.29
				c-41.435,4.766-81.147,121.881-55.548,221.882c5.167,20.184,33.618,131.321,129.655,156.249
				C1378.678,2080.385,1469.955,2036.439,1517.398,1949.36z"/>
			
				<linearGradient id="SVGID_00000103249270178229575690000005626386697068999843_" gradientUnits="userSpaceOnUse" x1="2908.4451" y1="2242.8113" x2="2457.76" y2="1853.2903" gradientTransform="matrix(-1 0 0 1 3412.8872 0)">
				<stop  offset="0" style="stop-color:#311944"/>
				<stop  offset="1" style="stop-color:#6B3976"/>
			</linearGradient>
			<path style="fill:url(#SVGID_00000103249270178229575690000005626386697068999843_);" d="M1068.87,1716.711
				c16.913-15.633,49.269-33.655,65.497-75.549c4.886-12.61,22.19-57.291-3.338-91.469c-15.153-20.289-43.298-34.065-68.105-29.187
				c-21.198,4.167-24.513,18.932-60.536,48.647c-14.02,11.566-36.559,30.156-61.642,40.491
				c-42.975,17.711-68.793,1.047-111.937,2.948c-53.003,2.336-114.575,31.916-144.238,74.931
				c-52.654,76.345,23.618,153.791-34.052,243.229c-18.898,29.3-28.211,22.732-72.969,79.455
				c-44.817,56.796-67.226,85.192-63.241,119.992c5.536,48.298,57.557,94.433,106.544,97.568
				c47.852,3.067,78.272-34.583,102.633-18.113c17.341,11.715,7.426,34.513,25.842,61.907c23.74,35.321,70.401,42.358,77.936,43.49
				c69.946,10.552,164.256-71.467,204.313-168.638C1103.806,1971.188,976.927,1801.7,1068.87,1716.711z"/>
			
				<linearGradient id="SVGID_00000144330489261234263850000000888419048553365150_" gradientUnits="userSpaceOnUse" x1="2211.0093" y1="2817.1716" x2="2407.4084" y2="2553.5833" gradientTransform="matrix(-1 0 0 1 3412.8872 0)">
				<stop  offset="0" style="stop-color:#311944"/>
				<stop  offset="1" style="stop-color:#6B3976"/>
			</linearGradient>
			<path style="opacity:0.3;fill:url(#SVGID_00000144330489261234263850000000888419048553365150_);" d="M1042.387,2735.565
				c10.012-24.481,22.154-43.795,28.643-81.424c8.588-49.787-2.031-77.619-17.171-192.943c-10.792-82.197-8.923-94.903-1.743-107.23
				c15.598-26.783,48.654-38.667,82.388-43.521c-0.451,1.729-0.905,3.463-1.271,5.137c-17.7,80.833,49.851,130.153,19.382,219.01
				c-15.023,43.809-38.993,53.843-44.577,104.661c-5.232,47.603,13.743,57.519,9.689,100.784
				c-6.058,64.675-52.002,80.328-63.958,129.855c-7.768,32.184-1.226,79.242,55.511,147.358c-0.943,5.869-1.884,11.756-2.817,17.745
				c-4.308,2.464-16.97,8.942-33.277,6.524c-9.129-1.356-15.958-4.985-19.99-7.595
				C1004.516,2885.175,1018.893,2792.995,1042.387,2735.565z"/>
			
				<linearGradient id="SVGID_00000129193267518644752730000005661664836365073050_" gradientUnits="userSpaceOnUse" x1="2237.575" y1="2183.5195" x2="2606.5352" y2="2183.5195" gradientTransform="matrix(-0.9905 -0.1373 -0.1373 0.9905 4033.125 96.6064)">
				<stop  offset="0" style="stop-color:#FFC444"/>
				<stop  offset="0.9964" style="stop-color:#F36F56"/>
			</linearGradient>
			<path style="fill:url(#SVGID_00000129193267518644752730000005661664836365073050_);" d="M1220.02,1798.555
				c64.246,66.987,41.062,175.169,84.645,186.858c13.313,3.571,14.008-6.918,47.777-12.942c49.391-8.812,69.441,9.786,104.305,2.721
				c14.44-2.926,33.781-10.77,54.799-32.692c1.951,2.287,3.903,4.573,5.852,6.859c-47.443,87.079-138.72,131.025-216.261,110.897
				c-96.036-24.927-124.488-136.065-129.655-156.249c-12.01-46.921-9.642-97.611,0.536-138.693
				C1187.999,1772.482,1204.993,1782.887,1220.02,1798.555z"/>
			
				<linearGradient id="SVGID_00000090994755123556134150000000300607382863355318_" gradientUnits="userSpaceOnUse" x1="1966.9342" y1="2132.9082" x2="2474.8755" y2="2087.1218" gradientTransform="matrix(-1 0 0 1 3412.8872 0)">
				<stop  offset="0" style="stop-color:#FFC444"/>
				<stop  offset="0.9964" style="stop-color:#F36F56"/>
			</linearGradient>
			<path style="fill:url(#SVGID_00000090994755123556134150000000300607382863355318_);" d="M1273.285,1705.067
				c-4.462-6.934-18.654-26.143-78.873-40.302c-21.598-5.079-56.314-12.746-100.629-11.121c-7.427,0.273-31.364,1.495-57.161,7.087
				c-54.984,11.913-164.593,53.777-168.413,110.805c-2.727,40.725,51.572,43.342,82.291,115.437
				c22.381,52.525,22.236,118.14-2.18,169.181c-19.596,40.964-54.262,71.714-80.588,95.075
				c-39.49,35.032-59.943,40.415-73.181,71.801c-14.418,34.178,0.111,50.845-17.794,74.243
				c-19.228,25.128-41.757,13.448-74.349,38.859c-33.386,26.028-21.506,47.449-51.889,76.215
				c-44.15,41.791-102.676,28.217-105.399,47.022c-2.345,16.175,39.25,38.125,74.59,47.024
				c69.984,17.627,131.029-11.958,149.179-21.079c50.257-25.249,41.576-41.59,79.894-60.84c64.16-32.228,108.007,3.636,254.14,7.328
				c79.136,2.003,119.15,2.454,141.073-24.32c20.021-24.458,9.496-51.282-2.518-166.893c0,0,0-0.003-0.001-0.014
				c-3.86-38.609-11.945-119.447-11.994-165.513c-0.029-27.225,9.413-71.708,28.297-160.675
				c1.115-5.246,11.334-53.31,19.592-117.517C1284.806,1739.049,1283.728,1721.296,1273.285,1705.067z"/>
			<g>
				
					<linearGradient id="SVGID_00000003788812666454201980000003853105097632607403_" gradientUnits="userSpaceOnUse" x1="2507.6216" y1="1663.0233" x2="2618.9167" y2="2343.6384" gradientTransform="matrix(-1 0 0 1 3412.8872 0)">
					<stop  offset="0" style="stop-color:#FFC444"/>
					<stop  offset="0.9964" style="stop-color:#F36F56"/>
				</linearGradient>
				<path style="fill:url(#SVGID_00000003788812666454201980000003853105097632607403_);" d="M650.519,2412.344
					c30.383-28.764,18.501-50.187,51.889-76.213c32.592-25.411,55.121-13.731,74.349-38.859
					c17.905-23.398,3.376-40.064,17.794-74.241c13.239-31.387,33.691-36.769,73.181-71.804
					c26.327-23.36,60.993-54.111,80.589-95.074c34.01-71.087,10.23-146.983,2.179-169.182
					c-25.871-71.355-78.112-108.967-97.043-121.293c1.823-1.964,90.262,76.77,92.562,74.414
					c124.724,17.14,111.155,8.239,120.149,29.58c20.79,49.328-12.123,67.453-12.973,209.72
					c-0.403,68.003,6.93,94.854-15.133,123.237c-25.235,32.461-54.316,22.416-90.805,64.86
					c-28.038,32.608-23.548,53.283-49.729,67.022c-28.15,14.77-46.081-2.446-77.833,4.326
					c-53.045,11.311-64.385,72.475-99.453,105.938c-26.518,25.304-75.546,42.995-172.24,24.006
					c-2.236-3.256-3.317-6.434-2.885-9.413C547.846,2440.563,606.369,2454.135,650.519,2412.344z"/>
			</g>
			
				<linearGradient id="SVGID_00000127760510982722129440000008576224733915996825_" gradientUnits="userSpaceOnUse" x1="2319.3533" y1="1679.0969" x2="2439.5173" y2="1504.6649" gradientTransform="matrix(-1 0 0 1 3412.8872 0)">
				<stop  offset="0" style="stop-color:#FFC444"/>
				<stop  offset="0.9964" style="stop-color:#F36F56"/>
			</linearGradient>
			<path style="fill:url(#SVGID_00000127760510982722129440000008576224733915996825_);" d="M1077.105,1583.631
				c0,0-6.29,50.285-24.849,61.807c-18.561,11.515-48.565,26.565-51.869,30.651c-3.306,4.079,114.975,16.797,173.59-12.782l0,0
				c-19.316-4.028-24.568-5.509-24.568-5.509c-5.243-1.483-15.023-4.238-24.826-9.827c-6.673-3.799-17.429-11.223-27.295-25.241
				l0.216-27.844L1077.105,1583.631z"/>
			
				<linearGradient id="SVGID_00000022524963482180014060000003275871999066110873_" gradientUnits="userSpaceOnUse" x1="2308.4609" y1="1590.621" x2="2498.3979" y2="1476.2711" gradientTransform="matrix(-1 0 0 1 3412.8872 0)">
				<stop  offset="0" style="stop-color:#FFC444"/>
				<stop  offset="0.9964" style="stop-color:#F36F56"/>
			</linearGradient>
			<path style="fill:url(#SVGID_00000022524963482180014060000003275871999066110873_);" d="M1074.282,1601.441
				c0,0,12.102,16.609,31.078,9.688c16.994-6.198,6.852-50.084-6.627-55.091c-4.495-1.668-12.751-0.931-18.269,2.512
				c-3.882,2.421-14.246,15.296-8.305,29.725c-4.293-1.244-8.071-0.115-9.016,2.012c-1.203,2.696,2.434,6.368,3.255,7.199
				C1069.252,1600.371,1072.696,1601.178,1074.282,1601.441z"/>
			<g>
				
					<linearGradient id="SVGID_00000003810907650689101430000005134104468169015955_" gradientUnits="userSpaceOnUse" x1="3066.8777" y1="4511.3574" x2="3263.0493" y2="4635.1821" gradientTransform="matrix(-0.4231 -0.9061 -0.9061 0.4231 6620.1597 2981.0581)">
					<stop  offset="0" style="stop-color:#AB316D"/>
					<stop  offset="1" style="stop-color:#792D3D"/>
				</linearGradient>
				<path style="fill:url(#SVGID_00000003810907650689101430000005134104468169015955_);" d="M667.457,2287.033
					c0.553,29.685,12.032,54.268,34.437,73.748l1021.13-476.824l-34.437-73.748L667.457,2287.033z"/>
				
					<linearGradient id="SVGID_00000073705989943431051100000018013212319072522671_" gradientUnits="userSpaceOnUse" x1="3219.0364" y1="4524.1143" x2="3084.0725" y2="4543.5938" gradientTransform="matrix(-0.4231 -0.9061 -0.9061 0.4231 6620.1597 2981.0581)">
					<stop  offset="0" style="stop-color:#AB316D"/>
					<stop  offset="1" style="stop-color:#792D3D"/>
				</linearGradient>
				<path style="fill:url(#SVGID_00000073705989943431051100000018013212319072522671_);" d="M684.32,2341.348
					c-5.897-8.507-10.25-17.735-13.057-27.685l1028.214-480.132l12.951,27.734L684.32,2341.348z"/>
				
					<linearGradient id="SVGID_00000178922569434529605790000013684303036879719826_" gradientUnits="userSpaceOnUse" x1="3132.4248" y1="3716.0134" x2="3065.8303" y2="4380.293" gradientTransform="matrix(-0.4231 -0.9061 -0.9061 0.4231 6620.1597 2981.0581)">
					<stop  offset="0.494" style="stop-color:#EBEFF2"/>
					<stop  offset="1" style="stop-color:#FFFFFF"/>
				</linearGradient>
				<path style="fill:url(#SVGID_00000178922569434529605790000013684303036879719826_);" d="M1688.587,1810.208
					c-2.857,30.937,8.458,55.593,34.437,73.748l215.05-142.413c2.421-1.736,0.646-5.537-2.239-4.795L1688.587,1810.208z"/>
				
					<linearGradient id="SVGID_00000091729963729259554470000010634838998891608987_" gradientUnits="userSpaceOnUse" x1="3110.3677" y1="3657.9526" x2="3104.8025" y2="3897.2571" gradientTransform="matrix(-0.4231 -0.9061 -0.9061 0.4231 6620.1597 2981.0581)">
					<stop  offset="0" style="stop-color:#AB316D"/>
					<stop  offset="1" style="stop-color:#792D3D"/>
				</linearGradient>
				<path style="fill:url(#SVGID_00000091729963729259554470000010634838998891608987_);" d="M1938.074,1741.543l-83.597,55.361
					c-7.588-9.352-12.504-19.888-14.795-31.588l96.153-28.568C1938.721,1736.006,1940.496,1739.807,1938.074,1741.543z"/>
			</g>
			
				<linearGradient id="SVGID_00000104684164928298607610000008168493154170235559_" gradientUnits="userSpaceOnUse" x1="1901.9344" y1="1958.4875" x2="1961.8042" y2="2324.615" gradientTransform="matrix(-1 0 0 1 3412.8872 0)">
				<stop  offset="0" style="stop-color:#FFC444"/>
				<stop  offset="0.9964" style="stop-color:#F36F56"/>
			</linearGradient>
			<path style="fill:url(#SVGID_00000104684164928298607610000008168493154170235559_);" d="M1483.482,1992.475
				c0,0,32.259-28.906,43.822-46.249c11.562-17.343,5.781,20.234,0,31.796C1521.523,1989.585,1480.128,2018.49,1483.482,1992.475z"
				/>
			
				<linearGradient id="SVGID_00000137853502451804461480000009781843274632962222_" gradientUnits="userSpaceOnUse" x1="2513.603" y1="2119.0305" x2="2503.5872" y2="1711.2471" gradientTransform="matrix(-1 0 0 1 3412.8872 0)">
				<stop  offset="0" style="stop-color:#FFC444"/>
				<stop  offset="0.9964" style="stop-color:#F36F56"/>
			</linearGradient>
			<path style="fill:url(#SVGID_00000137853502451804461480000009781843274632962222_);" d="M950.599,1690.385
				c-37.544,18.598-155.586,74.399-181.341,235.367c-25.755,160.967,111.604,244.67,111.604,244.67l32.193-21.462
				c0,0-34.34-251.109,87.995-321.934C1123.385,1756.199,950.599,1690.385,950.599,1690.385z"/>
			
				<linearGradient id="SVGID_00000164477997872895266180000018139546691880028308_" gradientUnits="userSpaceOnUse" x1="2456.8459" y1="2149.9053" x2="2560.9377" y2="2226.0959" gradientTransform="matrix(-1 0 0 1 3412.8872 0)">
				<stop  offset="0" style="stop-color:#FFC444"/>
				<stop  offset="0.9964" style="stop-color:#F36F56"/>
			</linearGradient>
			<path style="fill:url(#SVGID_00000164477997872895266180000018139546691880028308_);" d="M905.443,2154.033
				c7.612,1.365,11.904,7.803,29.074-0.782c17.17-8.585,60.094,2.146,60.094,2.146s-21.462,19.316-45.071,15.023
				c-23.609-4.292-45.509,7.359-51.729,9.045c-6.22,1.686-8.361-14.772-8.361-14.772L905.443,2154.033z"/>
		</g>
	</g>
</g>
</svg>
